<?xml version="1.0" standalone="no"?>
<!DOCTYPE svg PUBLIC "-//W3C//DTD SVG 20010904//EN"
 "http://www.w3.org/TR/2001/REC-SVG-20010904/DTD/svg10.dtd">
<svg version="1.0" xmlns="http://www.w3.org/2000/svg"
 width="1088.000000pt" height="841.000000pt" viewBox="0 0 1088.000000 841.000000"
 preserveAspectRatio="xMidYMid meet">

<g transform="translate(0.000000,841.000000) scale(0.100000,-0.100000)"
fill="#000000" stroke="none">
<path d="M5412 8248 c-5 -7 -13 -23 -16 -35 -4 -12 -18 -41 -31 -65 -31 -54
-93 -173 -114 -216 -18 -37 -17 -37 -171 -52 -149 -14 -227 -26 -325 -51 -44
-12 -113 -27 -153 -34 -40 -8 -79 -18 -85 -23 -7 -5 -46 -17 -87 -27 -41 -9
-86 -23 -100 -30 -14 -7 -45 -19 -70 -26 -25 -7 -49 -16 -55 -19 -5 -4 -34
-15 -62 -24 -29 -10 -53 -22 -53 -26 0 -5 -19 -14 -42 -20 -24 -6 -54 -19 -68
-29 -14 -10 -43 -24 -64 -31 -22 -7 -49 -21 -59 -31 -11 -10 -32 -21 -48 -24
-15 -4 -33 -13 -40 -21 -6 -8 -17 -14 -25 -14 -7 0 -19 -8 -26 -18 -7 -10 -25
-22 -41 -26 -15 -3 -35 -14 -45 -24 -9 -9 -30 -23 -45 -29 -15 -7 -27 -17 -27
-22 0 -5 -17 -16 -37 -24 -21 -8 -54 -31 -72 -51 -19 -20 -42 -36 -50 -36 -19
-1 -51 -28 -67 -55 -15 -26 -152 -104 -184 -105 -14 0 -35 7 -47 15 -19 13
-76 28 -258 66 -22 4 -52 11 -66 14 -26 7 -27 6 -18 -32 34 -153 54 -233 69
-268 9 -22 19 -59 22 -81 6 -40 2 -46 -68 -134 -41 -51 -90 -115 -108 -144
-18 -28 -40 -57 -49 -64 -9 -7 -19 -27 -22 -43 -4 -16 -16 -34 -27 -40 -11 -6
-29 -29 -39 -52 -11 -23 -25 -51 -32 -62 -41 -65 -65 -110 -104 -187 -24 -48
-48 -90 -54 -93 -13 -9 -39 -73 -39 -99 0 -12 -13 -43 -30 -69 -16 -26 -38
-81 -49 -123 -11 -42 -24 -81 -30 -87 -6 -6 -38 -13 -71 -15 -49 -4 -61 -1
-66 12 -6 15 2 77 38 301 6 39 13 109 15 157 l4 86 -43 -4 c-57 -7 -132 -26
-138 -36 -3 -4 -41 -14 -85 -23 -43 -8 -81 -19 -84 -23 -3 -5 -28 -12 -56 -16
-27 -4 -59 -14 -71 -21 -27 -17 -87 -35 -154 -44 -47 -7 -131 -29 -310 -83
-19 -6 -38 -15 -41 -20 -3 -4 -41 -15 -85 -22 -43 -8 -99 -23 -124 -34 -25
-11 -67 -23 -95 -27 -27 -3 -60 -13 -72 -21 -12 -8 -33 -14 -45 -14 -33 -1
-108 -23 -145 -43 -18 -9 -48 -17 -67 -17 -19 0 -47 -5 -63 -11 -15 -6 -59
-19 -98 -29 -38 -10 -89 -28 -112 -39 -23 -12 -47 -21 -53 -21 -12 0 -8 -60
12 -175 5 -33 14 -94 19 -135 7 -70 14 -116 53 -373 8 -54 19 -104 24 -110 6
-7 15 -57 21 -112 17 -163 30 -249 40 -270 5 -11 19 -96 31 -190 11 -93 32
-233 45 -310 13 -77 27 -167 31 -200 4 -33 11 -63 16 -66 6 -4 14 -42 18 -85
12 -112 19 -134 47 -145 14 -5 356 -9 821 -9 438 0 807 -3 820 -6 12 -4 22
-13 22 -20 0 -8 5 -14 10 -14 6 0 10 -17 10 -38 0 -21 4 -42 9 -47 5 -6 30
-62 56 -125 27 -63 54 -122 61 -130 7 -9 23 -38 35 -65 12 -28 27 -57 34 -65
7 -8 15 -26 18 -40 7 -29 101 -189 120 -205 21 -17 57 -73 57 -88 0 -8 18 -33
40 -55 22 -22 40 -47 40 -57 0 -9 28 -44 63 -79 35 -34 71 -77 80 -95 17 -34
23 -121 10 -135 -12 -11 -33 -80 -33 -106 0 -15 -4 -30 -10 -36 -5 -5 -13 -39
-17 -74 -3 -36 -12 -75 -20 -87 -18 -27 -5 -35 38 -23 19 6 46 10 61 10 16 0
54 8 85 19 32 10 83 24 113 30 30 7 67 17 81 22 38 15 114 -26 188 -101 32
-33 67 -60 78 -60 10 0 37 -17 60 -38 23 -22 59 -47 80 -57 21 -10 41 -24 46
-31 9 -16 180 -114 198 -114 8 0 27 -11 43 -25 16 -14 48 -30 70 -36 23 -6 50
-19 61 -29 23 -20 79 -50 95 -50 6 0 30 -9 53 -21 59 -29 261 -99 286 -99 7 0
19 -6 27 -14 8 -8 36 -17 62 -21 26 -3 67 -12 92 -20 25 -8 90 -22 145 -31 55
-10 103 -22 106 -27 4 -5 58 -13 120 -17 63 -4 141 -15 174 -24 32 -9 67 -16
75 -16 20 0 100 -105 100 -130 0 -9 10 -32 23 -51 12 -19 35 -59 51 -89 44
-82 96 -123 96 -76 0 7 11 24 24 38 14 13 46 64 73 114 88 165 110 193 151
199 20 3 51 10 67 15 17 5 89 14 161 20 72 6 155 17 185 26 30 8 90 21 133 29
44 8 82 18 85 23 3 6 33 15 66 21 33 6 61 15 63 20 2 5 11 7 22 4 10 -3 31 2
47 10 15 8 57 25 93 38 36 12 70 27 75 34 6 7 49 24 97 39 48 14 100 38 117
52 17 14 46 30 64 35 19 5 44 18 57 29 13 11 31 20 40 20 10 0 24 7 31 16 8 9
32 25 55 35 23 9 45 22 48 28 4 6 15 11 25 11 9 0 35 15 57 34 21 18 48 36 59
40 11 3 38 22 59 41 22 19 44 35 50 35 6 0 22 10 36 23 14 12 41 34 60 49 19
15 48 38 65 53 57 51 96 69 116 56 11 -6 49 -18 85 -27 36 -8 87 -23 115 -34
27 -11 70 -20 95 -20 24 0 53 -5 64 -12 29 -18 33 -5 16 46 -9 26 -16 58 -16
71 0 14 -11 66 -24 117 -41 159 -42 179 -10 235 16 26 47 67 70 91 24 23 47
57 53 75 6 19 25 43 41 56 17 12 37 36 45 54 18 39 36 68 52 82 6 5 26 39 45
75 18 36 38 68 45 73 6 4 19 28 29 55 9 26 27 61 39 77 27 37 117 225 135 280
7 22 19 54 25 70 7 17 16 46 20 65 13 61 22 70 70 70 51 0 88 -29 80 -64 -46
-219 -74 -416 -67 -464 4 -29 8 -32 39 -32 20 0 46 9 60 20 15 11 41 20 61 20
49 0 151 27 234 61 38 16 93 32 121 35 29 4 68 15 87 25 19 10 62 21 95 24 33
4 69 13 80 20 11 6 34 15 50 18 52 10 119 27 140 36 11 5 43 15 70 22 28 6 57
18 65 24 8 7 38 15 67 18 29 3 65 13 82 21 16 9 45 16 63 16 18 0 60 12 93 25
33 14 92 30 130 36 39 7 80 18 92 25 12 7 41 17 65 20 24 4 54 15 67 26 14 10
40 18 63 18 60 0 114 21 132 51 20 34 20 65 1 119 -8 23 -15 64 -15 89 0 26
-4 51 -8 57 -5 5 -16 63 -25 129 -9 66 -21 152 -26 190 -6 39 -12 93 -14 120
-2 28 -11 70 -19 95 -9 25 -19 84 -23 132 -4 55 -12 91 -21 99 -9 7 -14 31
-14 63 0 75 -27 282 -44 335 -8 25 -22 102 -30 171 -27 207 -36 271 -52 365
-27 165 -35 193 -50 199 -9 3 -383 6 -833 6 -906 0 -852 -4 -866 67 -11 61
-36 125 -60 158 -13 16 -32 61 -44 98 -11 38 -30 80 -41 94 -11 14 -20 30 -20
36 0 24 -73 161 -100 188 -16 16 -40 53 -55 83 -15 30 -35 62 -45 71 -10 9
-21 29 -25 44 -5 24 -67 110 -145 201 -16 19 -46 57 -66 84 l-36 49 16 51 c8
28 25 96 36 151 12 55 26 110 31 121 6 12 8 31 5 42 -4 11 -2 23 4 27 17 11
11 35 -9 35 -11 0 -22 -4 -25 -9 -3 -5 -23 -11 -43 -14 -60 -8 -275 -54 -309
-67 -28 -10 -36 -7 -85 25 -30 19 -75 54 -101 78 -67 61 -173 137 -191 137 -5
0 -22 10 -37 23 -74 59 -87 67 -112 73 -16 3 -28 10 -28 15 0 5 -12 15 -27 21
-16 7 -37 19 -48 28 -11 9 -36 23 -55 30 -19 7 -40 17 -46 22 -29 22 -110 59
-159 73 -30 9 -55 20 -55 25 0 5 -19 15 -42 22 -24 7 -49 18 -55 24 -7 7 -32
15 -55 19 -24 4 -59 15 -79 25 -19 10 -61 23 -92 30 -31 6 -57 16 -57 21 0 5
-12 9 -26 9 -14 0 -34 4 -44 10 -32 17 -132 40 -212 50 -43 5 -97 16 -120 23
-24 8 -97 18 -163 21 -164 10 -172 13 -224 93 -24 36 -47 79 -52 96 -10 34
-57 117 -67 117 -4 0 -16 18 -26 40 -20 42 -53 54 -74 28z m508 -588 c41 -6
82 -15 90 -19 9 -5 36 -12 60 -15 127 -20 296 -61 314 -75 6 -5 40 -17 74 -26
35 -9 71 -20 80 -25 10 -5 44 -17 77 -26 33 -9 65 -23 71 -31 6 -7 15 -13 20
-13 5 0 25 -8 44 -19 19 -10 60 -26 90 -36 30 -10 63 -26 73 -36 10 -11 23
-19 29 -19 6 0 19 -6 27 -14 9 -8 47 -30 85 -50 38 -20 81 -45 96 -56 16 -11
32 -20 37 -20 4 0 22 -13 39 -29 17 -16 58 -43 91 -60 34 -17 69 -41 79 -54
11 -13 33 -32 49 -42 42 -27 53 -36 116 -99 31 -31 61 -56 66 -56 12 0 73 -66
73 -79 0 -5 22 -24 50 -42 27 -19 50 -39 50 -46 0 -6 28 -40 63 -75 35 -35 79
-85 97 -113 19 -27 49 -64 67 -81 18 -17 33 -37 33 -43 0 -10 41 -72 60 -91
12 -12 50 -70 50 -76 0 -4 7 -15 15 -24 29 -32 145 -260 212 -415 19 -44 41
-90 48 -102 8 -12 16 -37 17 -55 l3 -33 -75 0 -74 0 -33 80 c-45 109 -95 206
-110 212 -7 3 -13 16 -13 28 0 13 -11 36 -23 52 -13 15 -38 57 -56 93 -17 36
-50 84 -72 107 -34 36 -44 41 -60 33 -27 -15 -24 -60 5 -101 64 -90 236 -433
239 -477 2 -25 -1 -27 -42 -30 -51 -4 -91 4 -91 18 0 16 -97 212 -149 300 -28
47 -54 94 -60 105 -5 11 -21 31 -35 44 -22 21 -31 23 -54 15 -38 -13 -42 -56
-8 -87 14 -13 40 -50 57 -83 62 -114 120 -229 134 -266 17 -45 11 -48 -84 -48
-69 0 -111 17 -111 46 0 8 -3 14 -8 14 -7 0 -29 39 -97 168 -24 46 -83 122
-95 122 -4 0 -18 -8 -31 -19 l-23 -18 56 -84 c65 -99 93 -152 103 -196 l7 -33
-80 0 c-87 0 -99 6 -128 61 -17 33 -115 181 -125 189 -3 3 -9 15 -13 27 -4 11
-22 33 -41 48 -19 14 -35 32 -35 40 0 13 -257 285 -270 285 -3 0 -33 26 -67
58 -34 31 -79 66 -100 77 -21 11 -42 25 -48 31 -18 20 -195 124 -210 124 -8 0
-15 4 -15 9 0 5 -20 16 -45 25 -25 8 -57 24 -72 35 -14 12 -33 21 -42 21 -9 0
-33 9 -53 20 -21 11 -55 24 -75 29 -21 5 -74 23 -118 41 -50 19 -121 36 -190
46 -60 8 -133 21 -161 29 -28 8 -71 15 -97 15 -39 0 -51 5 -87 40 -22 21 -52
64 -66 95 -14 31 -36 67 -49 81 -20 21 -26 23 -42 13 -21 -13 -57 -72 -66
-109 -9 -34 -75 -103 -112 -117 -16 -6 -57 -14 -90 -17 -33 -4 -85 -11 -115
-16 -30 -6 -93 -15 -140 -21 -46 -6 -97 -17 -112 -25 -15 -8 -41 -21 -57 -29
-16 -8 -52 -20 -80 -26 -28 -6 -51 -15 -51 -20 0 -4 -26 -16 -57 -25 -32 -9
-65 -22 -73 -28 -8 -7 -36 -20 -62 -30 -27 -10 -48 -21 -48 -25 0 -4 -18 -13
-40 -20 -22 -6 -40 -18 -40 -25 0 -7 -13 -16 -29 -19 -16 -3 -35 -12 -42 -20
-8 -7 -26 -20 -40 -28 -75 -42 -128 -80 -186 -136 -36 -35 -69 -63 -74 -63
-15 0 -79 -62 -79 -76 0 -8 -21 -29 -46 -47 -25 -17 -52 -46 -61 -64 -8 -18
-30 -42 -49 -54 -19 -11 -34 -26 -34 -32 0 -6 -20 -37 -45 -68 -25 -32 -45
-60 -45 -64 0 -9 -43 -69 -56 -77 -7 -4 -22 -27 -34 -50 -12 -24 -33 -58 -46
-75 -25 -32 -27 -33 -105 -33 -71 0 -79 2 -79 19 0 16 45 107 80 161 70 109
84 152 54 164 -36 14 -53 5 -80 -41 -15 -27 -37 -61 -49 -78 -27 -36 -95 -162
-95 -175 0 -5 -8 -19 -17 -30 -15 -17 -30 -20 -101 -20 -63 0 -84 3 -88 15 -5
11 49 129 123 270 6 11 18 36 27 55 9 19 28 50 41 69 30 41 31 57 4 71 -29 16
-44 7 -75 -42 -15 -24 -33 -50 -41 -58 -15 -16 -123 -197 -123 -206 0 -3 -17
-43 -37 -90 l-38 -84 -64 0 -64 0 7 42 c4 23 13 49 20 58 8 8 17 26 21 40 12
39 64 148 73 152 4 1 24 35 44 73 19 39 52 94 72 124 35 51 44 84 28 107 -11
17 -35 22 -54 13 -15 -8 -64 -74 -81 -109 -4 -8 -21 -37 -37 -65 -53 -89 -128
-240 -161 -326 -18 -46 -38 -89 -45 -96 -19 -19 -150 -17 -158 2 -6 17 1 43
19 65 6 8 27 53 46 100 18 47 48 110 65 140 17 30 37 73 44 95 13 41 34 78 57
105 30 34 113 170 113 185 0 9 18 35 40 57 22 23 40 44 40 48 0 3 23 32 50 65
28 33 50 62 50 66 0 4 31 40 70 80 38 41 72 82 75 91 3 9 21 26 40 37 19 11
45 38 59 60 14 22 49 58 78 79 29 22 75 60 102 86 27 25 54 46 60 46 6 0 31
20 55 45 24 25 60 53 80 62 20 9 61 36 91 60 30 24 60 47 65 51 6 4 70 38 144
75 73 38 140 75 148 83 8 8 19 14 24 14 12 0 102 40 181 81 31 16 65 29 75 29
25 0 175 52 190 66 7 6 43 17 80 24 37 7 78 19 90 26 12 8 37 14 54 14 43 0
161 21 174 30 11 8 153 28 245 34 119 8 719 -3 790 -14z m-4056 -1838 c3 -5
-2 -57 -10 -116 -8 -60 -13 -111 -10 -114 3 -3 1 -11 -5 -19 -9 -10 -95 -13
-453 -12 l-441 1 50 23 c28 13 59 24 70 25 11 0 29 7 39 15 11 8 32 15 47 15
15 0 31 5 34 10 3 6 15 10 27 10 11 0 41 7 67 15 51 16 155 42 216 54 45 9
262 79 285 91 20 11 77 12 84 2z m8327 -482 c22 -12 33 -54 49 -185 11 -93 17
-125 40 -215 5 -19 10 -61 10 -92 0 -31 5 -60 10 -63 6 -3 10 -29 10 -56 0
-27 6 -82 14 -122 8 -40 17 -97 21 -127 3 -30 10 -59 15 -65 4 -5 13 -55 19
-110 15 -133 41 -293 82 -507 25 -127 25 -174 0 -188 -15 -8 -6443 -16 -9725
-13 -17 0 -35 8 -43 18 -13 18 -15 29 -33 155 -14 100 -31 208 -46 285 -8 39
-25 151 -39 250 -25 174 -38 248 -55 310 -9 32 -26 142 -41 265 -5 41 -13 100
-18 130 -19 117 -40 246 -46 275 -8 40 5 57 50 64 67 11 9705 2 9726 -9z
m-7021 -2041 c63 -120 161 -280 176 -286 22 -8 54 17 54 42 0 23 -30 83 -57
116 -20 24 -103 181 -103 195 0 18 24 24 96 24 59 0 66 -3 94 -32 17 -17 28
-33 26 -36 -8 -7 33 -82 44 -82 6 0 16 -12 22 -27 39 -89 245 -343 279 -343 9
0 24 -15 33 -34 18 -38 101 -116 122 -116 8 0 14 -4 14 -9 0 -5 24 -28 53 -50
28 -23 61 -48 72 -57 11 -9 36 -23 55 -31 19 -8 51 -30 70 -48 19 -18 49 -36
67 -40 17 -3 37 -13 44 -22 30 -35 297 -152 398 -174 46 -10 87 -23 91 -29 4
-6 38 -16 76 -22 38 -5 76 -14 85 -18 9 -4 76 -14 150 -21 l133 -13 42 -43
c41 -43 47 -54 79 -130 15 -35 55 -83 69 -83 2 0 25 38 51 84 26 46 67 105 90
130 40 44 45 46 95 46 70 0 230 22 230 31 0 4 26 13 58 19 31 6 77 17 102 25
25 8 77 22 115 31 39 10 79 23 90 31 11 7 28 13 38 13 9 0 20 6 23 14 3 7 24
19 47 26 23 8 54 22 69 32 14 10 34 18 45 18 10 1 34 14 53 30 19 17 41 30 49
30 18 0 101 48 101 59 0 5 14 14 30 21 17 7 30 16 30 19 0 4 18 17 40 30 22
12 40 26 40 32 0 5 15 15 34 23 19 8 42 26 51 40 10 14 31 35 49 45 17 11 47
40 66 65 19 25 42 45 52 46 18 0 48 34 91 104 15 25 37 48 47 51 11 4 20 12
20 20 0 7 6 15 13 18 7 3 36 40 64 83 29 44 63 93 77 110 15 18 26 40 26 50 1
20 36 65 63 80 8 5 44 7 79 4 55 -4 63 -8 66 -27 2 -12 -8 -41 -22 -65 -15
-24 -36 -63 -48 -88 -11 -25 -24 -47 -27 -50 -21 -17 -53 -76 -58 -105 -5 -30
-2 -36 22 -47 19 -8 31 -9 43 -1 16 9 73 97 87 133 4 8 11 22 16 30 24 40 59
119 59 133 0 8 15 32 34 51 33 35 35 36 109 36 61 0 78 -3 85 -17 6 -9 6 -24
2 -32 -5 -9 -23 -50 -41 -91 -18 -41 -39 -82 -46 -91 -7 -8 -13 -20 -13 -26 0
-9 -29 -57 -96 -159 -41 -60 -43 -81 -9 -90 37 -9 52 0 76 48 12 24 39 69 60
100 22 32 39 62 39 67 0 5 7 11 14 14 15 6 90 152 101 197 3 14 17 38 30 55
20 24 31 29 62 27 61 -4 73 -11 73 -41 0 -27 -31 -103 -55 -131 -6 -8 -23 -42
-36 -75 -13 -33 -27 -62 -30 -65 -4 -3 -21 -32 -39 -65 -18 -33 -46 -80 -64
-105 -17 -25 -40 -62 -50 -83 l-20 -38 23 -22 22 -22 35 40 c18 22 34 34 34
26 0 -19 28 19 78 106 43 73 49 89 32 78 -11 -7 24 75 36 84 12 8 44 67 44 80
0 6 14 39 30 73 17 34 30 68 30 75 0 8 12 30 28 49 26 33 29 34 96 34 l69 0
-6 -46 c-2 -25 -14 -59 -26 -75 -12 -15 -21 -33 -21 -39 0 -13 -40 -105 -71
-165 -12 -22 -49 -94 -82 -160 -60 -121 -111 -203 -135 -218 -12 -8 -20 -19
-93 -128 -20 -30 -43 -60 -52 -68 -10 -7 -17 -21 -17 -30 0 -10 -29 -44 -64
-78 -35 -33 -78 -80 -95 -104 -17 -24 -44 -51 -59 -60 -15 -8 -36 -29 -47 -46
-11 -17 -37 -41 -57 -53 -21 -12 -38 -24 -38 -28 0 -4 -22 -25 -50 -47 -27
-22 -50 -45 -50 -51 0 -7 -10 -14 -23 -18 -12 -3 -45 -26 -72 -51 -27 -25 -53
-45 -56 -45 -4 0 -29 -17 -56 -38 -26 -20 -60 -43 -75 -49 -16 -7 -28 -16 -28
-21 0 -5 -24 -19 -52 -32 -29 -14 -75 -41 -102 -62 -27 -21 -56 -38 -66 -38
-9 0 -28 -9 -42 -19 -13 -11 -65 -36 -114 -56 -49 -21 -91 -41 -94 -45 -3 -4
-31 -16 -62 -25 -32 -9 -58 -21 -58 -26 0 -5 -11 -9 -25 -9 -23 0 -40 -6 -112
-36 -17 -8 -40 -14 -50 -14 -10 0 -36 -9 -56 -19 -21 -11 -57 -22 -80 -26 -79
-12 -148 -28 -153 -37 -3 -4 -19 -8 -36 -8 -18 0 -57 -4 -87 -9 -184 -32 -297
-43 -471 -45 -230 -4 -500 7 -509 21 -3 6 -45 13 -93 17 -48 4 -99 13 -115 21
-15 7 -57 16 -93 20 -36 4 -77 13 -91 21 -15 7 -60 20 -100 29 -41 9 -85 22
-99 29 -35 19 -224 86 -242 86 -8 0 -23 9 -32 19 -10 10 -33 22 -52 25 -19 4
-34 11 -34 16 0 4 -20 15 -45 24 -25 8 -52 22 -61 30 -8 8 -30 20 -49 25 -19
5 -45 20 -57 34 -13 13 -54 37 -91 53 -38 16 -73 37 -78 47 -5 9 -16 17 -24
17 -7 0 -15 4 -17 8 -1 4 -39 33 -83 64 -145 104 -180 131 -260 207 -22 21
-55 47 -72 57 -18 10 -33 24 -33 31 0 7 -4 13 -9 13 -5 0 -11 9 -14 20 -3 11
-16 24 -30 29 -14 6 -41 34 -60 63 -18 29 -46 59 -60 67 -15 8 -27 20 -27 27
0 7 -9 18 -20 24 -11 6 -20 17 -20 25 0 8 -18 33 -40 55 -22 22 -40 44 -40 49
0 4 -15 25 -34 47 -18 21 -41 54 -50 71 -9 18 -30 48 -46 66 -16 19 -39 56
-50 83 -12 27 -32 60 -44 74 -13 14 -26 37 -30 52 -3 15 -19 47 -35 70 -15 24
-36 63 -45 88 -10 25 -28 68 -41 95 -12 28 -25 57 -29 65 -3 8 -10 22 -15 30
-22 37 -33 69 -29 86 3 16 14 19 81 22 64 2 77 0 77 -13 0 -8 4 -15 8 -15 11
0 32 -46 32 -70 0 -10 10 -38 23 -62 12 -24 31 -64 40 -90 10 -25 25 -52 33
-58 7 -7 14 -20 14 -29 0 -8 20 -45 44 -81 24 -36 65 -98 90 -137 37 -57 53
-73 71 -73 37 0 51 35 28 67 -10 13 -25 37 -33 51 -9 15 -28 46 -42 68 -15 23
-34 58 -42 79 -9 20 -27 50 -40 65 -13 16 -36 62 -52 102 -15 40 -33 76 -40
81 -7 4 -15 25 -19 47 -10 57 4 70 75 70 l58 0 37 -87 c20 -49 43 -95 50 -103
7 -8 18 -34 24 -56 6 -23 20 -53 31 -67 11 -14 20 -30 20 -36 0 -6 4 -11 9
-11 6 0 16 -11 23 -24 7 -13 29 -47 48 -75 28 -41 40 -51 59 -49 43 5 48 31
14 74 -31 38 -75 118 -170 302 -57 111 -54 124 28 132 101 9 109 5 159 -91z
m6358 91 c254 0 392 -4 392 -10 0 -5 -7 -10 -15 -10 -8 0 -15 -4 -15 -9 0 -13
-26 -22 -114 -37 -44 -8 -85 -18 -90 -23 -13 -10 -85 -28 -146 -37 -44 -6
-139 -36 -172 -54 -9 -5 -52 -17 -95 -26 -43 -9 -80 -19 -83 -24 -8 -12 -124
-42 -151 -38 -19 2 -24 9 -22 28 1 14 4 62 7 107 3 46 10 92 16 104 14 24 48
40 75 34 11 -3 197 -5 413 -5z"/>
<path d="M4289 4992 c-52 -25 -107 -91 -94 -112 4 -6 1 -17 -5 -25 -7 -9 -11
-41 -10 -82 5 -136 3 -153 -24 -153 -13 0 -30 -8 -37 -17 -12 -16 -12 -17 2
-6 16 13 59 7 59 -8 0 -5 7 -9 15 -9 8 0 15 -4 15 -10 0 -5 -4 -10 -10 -10 -6
0 -10 -31 -11 -72 0 -40 -4 -95 -9 -123 -4 -27 -6 -52 -4 -54 2 -2 14 -1 28 3
29 7 45 48 27 70 -9 11 -9 15 1 18 10 4 11 14 3 44 -5 21 -9 60 -7 86 l3 47
62 -2 c45 -1 70 4 87 16 35 24 19 31 -34 13 -61 -21 -73 -20 -99 7 -21 20 -22
30 -21 144 3 185 40 251 126 222 34 -11 41 -10 55 4 14 14 14 17 2 21 -45 14
-74 12 -120 -12z"/>
<path d="M8246 4996 l-30 -23 24 -33 c21 -29 21 -33 7 -42 -13 -7 -15 -19 -12
-56 3 -26 4 -99 3 -162 0 -63 -1 -148 -2 -188 -1 -56 3 -76 14 -82 13 -7 12
-11 -3 -28 -12 -13 -17 -32 -15 -51 3 -29 4 -30 28 -18 23 12 25 18 23 72 -1
33 -3 189 -3 348 0 158 -1 287 -3 287 -1 0 -15 -11 -31 -24z"/>
<path d="M3390 4990 c-14 -8 49 -40 78 -40 21 0 39 17 28 27 -10 10 -94 20
-106 13z"/>
<path d="M3235 4971 c-33 -9 -95 -34 -137 -54 -96 -46 -131 -88 -131 -153 0
-55 26 -86 91 -108 61 -21 78 -20 97 7 15 21 17 21 29 4 11 -14 15 -15 19 -5
4 9 11 7 24 -9 15 -18 29 -21 95 -22 51 0 95 -7 135 -21 32 -12 73 -21 91 -20
17 0 32 -4 32 -10 0 -5 -10 -10 -21 -10 -18 0 -20 -4 -14 -27 14 -54 3 -167
-19 -188 -9 -9 -16 -22 -16 -30 0 -7 -20 -34 -44 -59 -121 -124 -434 -121
-548 6 -25 27 -38 51 -38 69 0 41 -15 43 -33 3 l-17 -34 49 -51 c32 -33 56
-50 68 -47 10 2 26 -4 36 -13 21 -19 115 -40 197 -44 103 -5 251 34 273 71 4
8 14 14 22 14 21 0 84 78 113 140 20 44 26 71 26 134 1 55 -3 81 -11 84 -7 2
-13 10 -13 18 0 31 -155 81 -188 60 -6 -3 -14 -1 -17 5 -4 6 -32 10 -69 8 -33
-1 -69 1 -79 6 -10 4 -43 5 -72 2 -40 -4 -57 -2 -66 9 -6 8 -17 14 -24 14 -7
0 -24 9 -39 21 -35 28 -36 77 -1 112 24 24 148 91 170 92 23 1 131 28 145 36
27 15 -51 9 -115 -10z"/>
<path d="M5825 4966 l-30 -24 160 -1 c132 0 166 -3 194 -17 35 -17 35 -18 12
-28 -22 -9 -23 -14 -17 -66 4 -33 13 -60 23 -67 15 -12 15 -13 0 -19 -14 -5
-17 -20 -17 -79 0 -77 10 -94 42 -71 11 8 14 17 8 26 -5 8 -5 19 1 26 11 13 7
133 -5 153 -4 6 -2 18 4 26 10 12 9 15 -4 15 -27 0 -29 26 -4 64 22 34 26 36
83 37 33 1 65 0 70 -1 6 -2 60 -4 121 -6 101 -3 114 -1 130 17 9 10 14 22 10
27 -4 4 -14 -2 -22 -12 -12 -17 -14 -17 -20 -3 -5 15 -9 15 -35 1 -16 -8 -29
-11 -29 -7 0 5 -75 8 -168 8 -167 -1 -391 9 -447 20 -23 4 -37 0 -60 -19z"/>
<path d="M4970 4760 c-23 -17 -25 -25 -22 -79 4 -59 3 -61 -21 -61 -13 0 -32
-9 -41 -19 -17 -19 -16 -19 23 -14 47 6 44 19 41 -162 -1 -88 1 -103 18 -118
18 -16 22 -16 86 3 37 12 70 28 73 36 9 25 -6 29 -30 7 -50 -46 -84 -38 -94
23 -3 21 -11 43 -17 47 -8 6 -7 10 2 14 14 6 17 53 2 53 -5 0 -10 7 -10 15 0
8 5 15 11 15 7 0 9 11 6 26 -6 33 33 51 76 36 24 -9 32 -7 53 10 35 31 30 36
-25 25 -56 -11 -96 -4 -104 18 -4 8 -2 40 3 72 5 31 6 61 2 65 -4 4 -18 -2
-32 -12z"/>
<path d="M4623 4626 c-97 -31 -173 -107 -173 -175 0 -93 68 -147 183 -145 91
2 152 26 166 65 13 38 7 37 -32 -5 -36 -38 -98 -54 -157 -41 -38 8 -97 66
-106 103 -4 15 -10 32 -14 37 -12 16 7 55 27 56 10 0 59 4 108 8 50 4 102 4
116 0 15 -4 32 -3 40 2 19 12 -16 57 -67 86 -45 26 -37 25 -91 9z m81 -37 c15
-12 24 -25 19 -29 -7 -7 -123 -14 -175 -11 -31 2 -19 21 25 41 55 25 98 25
131 -1z"/>
<path d="M6840 4631 c-14 -4 -40 -15 -57 -24 -41 -21 -43 -21 -43 3 0 21 -16
26 -40 10 -11 -7 -14 -25 -11 -77 1 -37 8 -71 14 -75 8 -5 7 -11 -1 -21 -6 -7
-11 -31 -10 -53 2 -21 -1 -51 -5 -66 -7 -26 -6 -26 23 -15 33 12 41 37 13 37
-17 1 -17 1 0 11 17 10 18 20 12 99 -6 82 -5 89 15 108 34 32 118 44 146 21 7
-6 17 -2 28 10 10 10 14 21 9 24 -18 11 -70 15 -93 8z"/>
<path d="M7943 4626 c-97 -31 -173 -107 -173 -175 0 -93 68 -147 183 -145 91
2 152 26 166 65 13 38 7 37 -32 -5 -36 -38 -98 -54 -157 -41 -38 8 -97 66
-106 103 -4 15 -10 32 -14 37 -12 16 7 55 27 56 10 0 59 4 108 8 50 4 102 4
116 0 15 -4 32 -3 40 2 19 12 -16 57 -67 86 -45 26 -37 25 -91 9z m81 -37 c15
-12 24 -25 19 -29 -7 -7 -123 -14 -175 -11 -31 2 -19 21 25 41 55 25 98 25
131 -1z"/>
<path d="M3835 4621 c-56 -15 -106 -41 -100 -51 10 -16 33 -12 73 14 32 20 45
23 78 16 21 -4 53 -16 71 -26 27 -16 31 -23 26 -44 -9 -38 -11 -40 -56 -40
-63 -1 -177 -44 -209 -80 -33 -36 -34 -40 -8 -73 28 -36 89 -43 179 -23 86 20
92 20 85 1 -8 -19 0 -19 37 0 16 9 27 20 23 26 -3 5 -7 47 -8 92 -3 91 -21
171 -37 161 -6 -3 -16 1 -22 10 -14 19 -89 28 -132 17z m120 -161 c19 0 24 -6
27 -37 6 -49 -23 -76 -100 -93 -48 -10 -66 -9 -98 2 -33 11 -39 17 -40 43 0
18 8 37 20 47 30 25 106 48 140 43 16 -3 39 -5 51 -5z"/>
<path d="M5277 4616 c-26 -12 -28 -16 -32 -89 -2 -42 -9 -85 -14 -95 -8 -15
-9 -58 -2 -95 0 -4 16 -14 35 -22 45 -19 82 -8 159 50 l62 46 5 -58 c6 -59 -9
-178 -28 -224 -12 -30 -74 -86 -109 -100 -62 -23 -132 -6 -159 40 -22 37 -34
40 -34 8 0 -33 72 -77 125 -77 59 0 135 40 175 91 19 24 37 46 41 49 14 11 40
125 39 173 0 29 0 88 0 132 0 62 -4 83 -17 92 -14 11 -14 15 -2 29 12 15 12
18 -3 27 -15 10 -15 12 0 24 14 10 14 12 2 12 -26 0 -50 -24 -39 -40 5 -8 9
-42 9 -77 0 -61 -1 -64 -45 -106 -24 -24 -61 -51 -81 -61 -35 -16 -37 -16 -63
3 -23 17 -26 26 -26 86 0 36 3 66 6 66 3 0 11 21 17 48 6 26 14 55 17 65 8 20
1 20 -38 3z"/>
<path d="M7095 4621 c-56 -15 -106 -41 -100 -51 10 -16 33 -12 73 14 32 20 45
23 78 16 21 -4 53 -16 71 -26 27 -16 31 -23 26 -44 -9 -38 -11 -40 -56 -40
-63 -1 -177 -44 -209 -80 -33 -36 -34 -40 -8 -73 28 -36 89 -43 179 -23 86 20
92 20 85 1 -8 -19 0 -19 37 0 16 9 27 20 23 26 -3 5 -7 47 -8 92 -3 91 -21
171 -37 161 -6 -3 -16 1 -22 10 -14 19 -89 28 -132 17z m120 -161 c19 0 24 -6
27 -37 6 -49 -23 -76 -100 -93 -48 -10 -66 -9 -98 2 -33 11 -39 17 -40 43 0
18 8 37 20 47 30 25 106 48 140 43 16 -3 39 -5 51 -5z"/>
<path d="M7403 4607 c-29 -13 -29 -16 2 -61 14 -20 25 -43 25 -51 0 -8 9 -22
19 -32 11 -10 23 -31 27 -48 4 -16 17 -49 29 -73 22 -41 23 -42 43 -25 27 24
158 290 148 301 -2 1 -11 0 -20 -4 -14 -5 -50 -97 -51 -130 0 -6 -5 -18 -11
-25 -7 -8 -22 -34 -34 -58 -21 -42 -23 -44 -36 -25 -7 10 -18 24 -24 31 -5 7
-10 17 -10 22 0 9 -24 63 -51 113 -5 10 -9 24 -9 31 0 7 -6 20 -12 29 -10 13
-18 14 -35 5z"/>
<path d="M6151 4443 c0 -76 -5 -169 -11 -207 -6 -38 -9 -70 -7 -72 1 -2 20 4
40 13 l37 17 0 77 c0 53 -4 79 -12 82 -10 3 -10 7 0 20 10 11 13 39 10 89 -2
59 -7 76 -26 95 -13 13 -25 23 -27 23 -3 0 -5 -62 -4 -137z"/>
</g>
</svg>
